<svg id="图层_1" data-name="图层 1" xmlns="http://www.w3.org/2000/svg" viewBox="0 0 300.68 329.82"><defs><style>.cls-1{fill:#fc7878;}</style></defs><title>logo</title><path class="cls-1" d="M541.69,139.53q-23-18.75-57.48-27.56-42.7-10.9-77.55,4.86t-44.48,53.44q-7.55,29.58,5.29,54.86T419.79,281q32.31,24.6,44.62,43.2t7,39.25c-10.08,39.45-43.33,57.9-92,45.47a153.87,153.87,0,0,1-15-5,46.15,46.15,0,0,0,2.46-6.75A45.38,45.38,0,0,0,368.59,385a47,47,0,0,0-10.7-29.57c-10.09-24.86-25.75-48.7-31.85-62.64a3,3,0,0,1,1.37-3.79c42.08-21.48,20.21-58.56,19.93-59,0,0,0,0,0,0l2.6-30.62L321,211.21a.45.45,0,0,1-.34,0c-12.47-5.59-32,.07-32,.07l-29.6-11.94L261.53,231c-16.47,33.15,3.74,50.24,11.13,55.11a4.13,4.13,0,0,1,1.68,4.51c-8.2,30.39-14.3,50.43-18.7,66.54A46.71,46.71,0,0,0,246.25,385a45.47,45.47,0,0,0,1.63,12c6.34,23.11,30.59,40.33,59.54,40.33,19.55,0,36.93-7.85,48.13-20.05,31.05,12.63,80,18.12,102,7.12q33.8-16.92,43.14-53.48,7.92-31-5.5-54T438.7,259.67q-28.29-22.22-39.42-37.28a47.22,47.22,0,0,1-3.34-58.12,24.13,24.13,0,0,1,9.44-10.06A47,47,0,0,1,434.75,144c.91,0,1.8,0,2.7.08a117,117,0,0,1,33.88,3.64c17.79,4.54,27.05,7.3,42,19.33,8.09,6.51,30.6-3,33.16-13A14.17,14.17,0,0,0,541.69,139.53Z" transform="translate(-246.25 -107.51)"/></svg>